<svg width="49" height="48" viewBox="0 0 49 48" fill="none" xmlns="http://www.w3.org/2000/svg">
<path d="M42.58 24.26C42.86 24.26 43.12 24.38 43.34 24.6L45.9 27.16C46.34 27.58 46.34 28.28 45.9 28.7L43.9 30.7L39.8 26.6L41.8 24.6C42.02 24.38 42.3 24.26 42.58 24.26ZM38.64 27.76L42.74 31.86L30.62 44H26.5V39.88L38.64 27.76ZM22.5 38L18.5 42H10.5C8.3 42 6.5 40.2 6.5 38V10C6.5 7.8 8.3 6 10.5 6H18.86C19.7 3.68 21.9 2 24.5 2C27.1 2 29.3 3.68 30.14 6H38.5C40.7 6 42.5 7.8 42.5 10V18L38.5 22V10H34.5V14H14.5V10H10.5V38H22.5ZM24.5 6C23.4 6 22.5 6.9 22.5 8C22.5 9.1 23.4 10 24.5 10C25.6 10 26.5 9.1 26.5 8C26.5 6.9 25.6 6 24.5 6Z" fill="#FFC107"/>
</svg>
