<svg width="49" height="50" viewBox="0 0 49 50" fill="none" xmlns="http://www.w3.org/2000/svg">
<path d="M20.4167 37.2505C24.0406 37.2498 27.5601 36.0366 30.4147 33.8042L39.3899 42.7794L42.2768 39.8924L33.3016 30.9173C35.5352 28.0623 36.7491 24.542 36.75 20.9172C36.75 11.9114 29.4225 4.58386 20.4167 4.58386C11.4109 4.58386 4.08334 11.9114 4.08334 20.9172C4.08334 29.923 11.4109 37.2505 20.4167 37.2505ZM20.4167 8.6672C27.1726 8.6672 32.6667 14.1613 32.6667 20.9172C32.6667 27.6731 27.1726 33.1672 20.4167 33.1672C13.6608 33.1672 8.16668 27.6731 8.16668 20.9172C8.16668 14.1613 13.6608 8.6672 20.4167 8.6672Z" fill="#FFC107"/>
<path d="M23.2994 18.0299C24.0732 18.8058 24.4999 19.8307 24.4999 20.9168H28.5832C28.585 19.8438 28.3741 18.781 27.9627 17.79C27.5513 16.799 26.9475 15.8993 26.1863 15.143C23.0952 12.056 17.7359 12.056 14.6468 15.143L17.5297 18.034C19.0813 16.4864 21.7559 16.4905 23.2994 18.0299Z" fill="#FFC107"/>
</svg>
