<svg width="49" height="48" viewBox="0 0 49 48" fill="none" xmlns="http://www.w3.org/2000/svg">
<path d="M24.4999 16C26.6217 16 28.6565 16.8429 30.1568 18.3431C31.6571 19.8434 32.4999 21.8783 32.4999 24C32.4999 26.1217 31.6571 28.1566 30.1568 29.6569C28.6565 31.1571 26.6217 32 24.4999 32C22.3782 32 20.3434 31.1571 18.8431 29.6569C17.3428 28.1566 16.4999 26.1217 16.4999 24C16.4999 21.8783 17.3428 19.8434 18.8431 18.3431C20.3434 16.8429 22.3782 16 24.4999 16ZM24.4999 20C23.4391 20 22.4216 20.4214 21.6715 21.1716C20.9214 21.9217 20.4999 22.9391 20.4999 24C20.4999 25.0609 20.9214 26.0783 21.6715 26.8284C22.4216 27.5786 23.4391 28 24.4999 28C25.5608 28 26.5782 27.5786 27.3284 26.8284C28.0785 26.0783 28.4999 25.0609 28.4999 24C28.4999 22.9391 28.0785 21.9217 27.3284 21.1716C26.5782 20.4214 25.5608 20 24.4999 20ZM20.4999 44C19.9999 44 19.5799 43.64 19.4999 43.16L18.7599 37.86C17.4999 37.36 16.4199 36.68 15.3799 35.88L10.3999 37.9C9.95992 38.06 9.41992 37.9 9.17992 37.46L5.17992 30.54C4.91992 30.1 5.03992 29.56 5.41992 29.26L9.63992 25.94L9.49992 24L9.63992 22L5.41992 18.74C5.03992 18.44 4.91992 17.9 5.17992 17.46L9.17992 10.54C9.41992 10.1 9.95992 9.92 10.3999 10.1L15.3799 12.1C16.4199 11.32 17.4999 10.64 18.7599 10.14L19.4999 4.84C19.5799 4.36 19.9999 4 20.4999 4H28.4999C28.9999 4 29.4199 4.36 29.4999 4.84L30.2399 10.14C31.4999 10.64 32.5799 11.32 33.6199 12.1L38.5999 10.1C39.0399 9.92 39.5799 10.1 39.8199 10.54L43.8199 17.46C44.0799 17.9 43.9599 18.44 43.5799 18.74L39.3599 22L39.4999 24L39.3599 26L43.5799 29.26C43.9599 29.56 44.0799 30.1 43.8199 30.54L39.8199 37.46C39.5799 37.9 39.0399 38.08 38.5999 37.9L33.6199 35.9C32.5799 36.68 31.4999 37.36 30.2399 37.86L29.4999 43.16C29.4199 43.64 28.9999 44 28.4999 44H20.4999ZM22.9999 8L22.2599 13.22C19.8599 13.72 17.7399 15 16.1999 16.78L11.3799 14.7L9.87992 17.3L14.0999 20.4C13.2999 22.74 13.2999 25.28 14.0999 27.6L9.85992 30.72L11.3599 33.32L16.2199 31.24C17.7599 33 19.8599 34.28 22.2399 34.76L22.9799 40H26.0199L26.7599 34.78C29.1399 34.28 31.2399 33 32.7799 31.24L37.6399 33.32L39.1399 30.72L34.8999 27.62C35.6999 25.28 35.6999 22.74 34.8999 20.4L39.1199 17.3L37.6199 14.7L32.7999 16.78C31.2599 15 29.1399 13.72 26.7399 13.24L25.9999 8H22.9999Z" fill="#F8F9FA"/>
</svg>
