<svg width="48" height="48" viewBox="0 0 48 48" fill="none" xmlns="http://www.w3.org/2000/svg">
<path d="M38 6.00011H29.64C28.5 2.88011 25.06 1.28011 22 2.40011C20.28 3.00011 19 4.32011 18.36 6.00011H10C8.93913 6.00011 7.92172 6.42154 7.17157 7.17168C6.42143 7.92183 6 8.93924 6 10.0001V38.0001C6 39.061 6.42143 40.0784 7.17157 40.8285C7.92172 41.5787 8.93913 42.0001 10 42.0001H38C39.0609 42.0001 40.0783 41.5787 40.8284 40.8285C41.5786 40.0784 42 39.061 42 38.0001V10.0001C42 8.93924 41.5786 7.92183 40.8284 7.17168C40.0783 6.42154 39.0609 6.00011 38 6.00011ZM24 6.00011C24.5304 6.00011 25.0391 6.21082 25.4142 6.5859C25.7893 6.96097 26 7.46968 26 8.00011C26 8.53054 25.7893 9.03925 25.4142 9.41432C25.0391 9.7894 24.5304 10.0001 24 10.0001C23.4696 10.0001 22.9609 9.7894 22.5858 9.41432C22.2107 9.03925 22 8.53054 22 8.00011C22 7.46968 22.2107 6.96097 22.5858 6.5859C22.9609 6.21082 23.4696 6.00011 24 6.00011ZM14 14.0001H34V10.0001H38V38.0001H10V10.0001H14V14.0001ZM34 22.0001H14V18.0001H34V22.0001ZM30 30.0001H14V26.0001H30V30.0001Z" fill="#FFC107"/>
</svg>
