<svg width="48" height="49" viewBox="0 0 48 49" fill="none" xmlns="http://www.w3.org/2000/svg">
<path d="M4 34.2998H44V42.2998H4V34.2998ZM12.5 14.2998H18V12.2998H12V6.2998H28V12.2998H22V14.2998H35.6C37.6 14.2998 39.6 16.2998 40 18.2998L41 32.2998H7L8.1 18.2998C8.1 16.2998 10.1 14.2998 12.5 14.2998ZM26 18.2998V22.2998H36V18.2998H26ZM12 18.2998V20.2998H16V18.2998H12ZM18 18.2998V20.2998H22V18.2998H18ZM12 22.2998V24.2998H16V22.2998H12ZM18 22.2998V24.2998H22V22.2998H18ZM12 26.2998V28.2998H16V26.2998H12ZM18 26.2998V28.2998H22V26.2998H18ZM14 8.2998V10.2998H26V8.2998H14Z" fill="#FFC107"/>
</svg>
