<svg width="282" height="282" viewBox="0 0 282 282" fill="none" xmlns="http://www.w3.org/2000/svg">
<g clip-path="url(#clip0_107_2162)">
<path d="M47.25 70.687H70.6875V211.312H47.25V70.687ZM82.4062 70.687H94.125V211.312H82.4062V70.687ZM105.844 70.687H141V211.312H105.844V70.687ZM152.719 70.687H164.438V211.312H152.719V70.687ZM187.875 70.687H211.312V211.312H187.875V70.687ZM223.031 70.687H234.75V211.312H223.031V70.687ZM23.8125 47.2495V94.1245H0.375V47.2495C0.375 41.0335 2.8443 35.0721 7.23969 30.6767C11.6351 26.2813 17.5965 23.812 23.8125 23.812H70.6875V47.2495H23.8125ZM258.188 23.812C264.404 23.812 270.365 26.2813 274.76 30.6767C279.156 35.0721 281.625 41.0335 281.625 47.2495V94.1245H258.188V47.2495H211.312V23.812H258.188ZM23.8125 187.875V234.75H70.6875V258.187H23.8125C17.5965 258.187 11.6351 255.718 7.23969 251.322C2.8443 246.927 0.375 240.966 0.375 234.75V187.875H23.8125ZM258.188 234.75V187.875H281.625V234.75C281.625 240.966 279.156 246.927 274.76 251.322C270.365 255.718 264.404 258.187 258.188 258.187H211.312V234.75H258.188Z" fill="#FFC107"/>
</g>
<defs>
<clipPath id="clip0_107_2162">
<rect width="281.25" height="281.25" fill="white" transform="translate(0.375 0.375)"/>
</clipPath>
</defs>
</svg>
