<svg width="49" height="48" viewBox="0 0 49 48" fill="none" xmlns="http://www.w3.org/2000/svg">
<path d="M26.5 38.6V25.2L38.5 18.4V26C39.9 26 41.3 26.2 42.5 26.8V15C42.5 14.2 42.1 13.6 41.5 13.2L25.7 4.4C25.3 4.2 24.9 4 24.5 4C24.1 4 23.7 4.2 23.3 4.4L7.5 13.2C6.9 13.6 6.5 14.2 6.5 15V33C6.5 33.8 6.9 34.4 7.5 34.8L23.3 43.6C23.7 43.8 24.1 44 24.5 44C24.9 44 25.3 43.8 25.7 43.6L27.5 42.6C26.9 41.4 26.7 40 26.5 38.6ZM24.5 8.4L36.5 15L32.5 17.2L20.7 10.4L24.5 8.4ZM22.5 38.6L10.5 31.8V18.4L22.5 25.2V38.6ZM24.5 21.6L12.5 15L16.5 12.6L28.5 19.6L24.5 21.6ZM40.5 30V36H46.5V40H40.5V46H36.5V40H30.5V36H36.5V30H40.5Z" fill="#F8F9FA"/>
</svg>
