<svg width="49" height="50" viewBox="0 0 49 50" fill="none" xmlns="http://www.w3.org/2000/svg">
<path d="M20.4167 37.2506C24.0406 37.2499 27.5601 36.0367 30.4147 33.8043L39.3899 42.7795L42.2768 39.8926L33.3016 30.9174C35.5352 28.0625 36.7491 24.5422 36.75 20.9173C36.75 11.9115 29.4225 4.58398 20.4167 4.58398C11.4109 4.58398 4.08333 11.9115 4.08333 20.9173C4.08333 29.9231 11.4109 37.2506 20.4167 37.2506ZM20.4167 8.66732C27.1725 8.66732 32.6667 14.1614 32.6667 20.9173C32.6667 27.6732 27.1725 33.1673 20.4167 33.1673C13.6608 33.1673 8.16666 27.6732 8.16666 20.9173C8.16666 14.1614 13.6608 8.66732 20.4167 8.66732Z" fill="#F8F9FA"/>
<path d="M23.2994 18.0303C24.0732 18.8061 24.4999 19.831 24.4999 20.9172H28.5832C28.585 19.8442 28.3741 18.7814 27.9627 17.7904C27.5513 16.7993 26.9475 15.8997 26.1863 15.1434C23.0952 12.0564 17.7358 12.0564 14.6468 15.1434L17.5296 18.0344C19.0813 16.4868 21.7559 16.4909 23.2994 18.0303Z" fill="#F8F9FA"/>
</svg>
