<svg width="49" height="49" viewBox="0 0 49 49" fill="none" xmlns="http://www.w3.org/2000/svg">
<path d="M4.5 34.2998H44.5V42.2998H4.5V34.2998ZM13 14.2998H18.5V12.2998H12.5V6.2998H28.5V12.2998H22.5V14.2998H36.1C38.1 14.2998 40.1 16.2998 40.5 18.2998L41.5 32.2998H7.5L8.6 18.2998C8.6 16.2998 10.6 14.2998 13 14.2998ZM26.5 18.2998V22.2998H36.5V18.2998H26.5ZM12.5 18.2998V20.2998H16.5V18.2998H12.5ZM18.5 18.2998V20.2998H22.5V18.2998H18.5ZM12.5 22.2998V24.2998H16.5V22.2998H12.5ZM18.5 22.2998V24.2998H22.5V22.2998H18.5ZM12.5 26.2998V28.2998H16.5V26.2998H12.5ZM18.5 26.2998V28.2998H22.5V26.2998H18.5ZM14.5 8.2998V10.2998H26.5V8.2998H14.5Z" fill="#F8F9FA"/>
</svg>
