<svg width="49" height="48" viewBox="0 0 49 48" fill="none" xmlns="http://www.w3.org/2000/svg">
<path d="M38.5 6.00011H30.14C29 2.88011 25.56 1.28011 22.5 2.40011C20.78 3.00011 19.5 4.32011 18.86 6.00011H10.5C9.43913 6.00011 8.42172 6.42154 7.67157 7.17168C6.92143 7.92183 6.5 8.93924 6.5 10.0001V38.0001C6.5 39.061 6.92143 40.0784 7.67157 40.8285C8.42172 41.5787 9.43913 42.0001 10.5 42.0001H38.5C39.5609 42.0001 40.5783 41.5787 41.3284 40.8285C42.0786 40.0784 42.5 39.061 42.5 38.0001V10.0001C42.5 8.93924 42.0786 7.92183 41.3284 7.17168C40.5783 6.42154 39.5609 6.00011 38.5 6.00011ZM24.5 6.00011C25.0304 6.00011 25.5391 6.21082 25.9142 6.5859C26.2893 6.96097 26.5 7.46968 26.5 8.00011C26.5 8.53054 26.2893 9.03925 25.9142 9.41432C25.5391 9.7894 25.0304 10.0001 24.5 10.0001C23.9696 10.0001 23.4609 9.7894 23.0858 9.41432C22.7107 9.03925 22.5 8.53054 22.5 8.00011C22.5 7.46968 22.7107 6.96097 23.0858 6.5859C23.4609 6.21082 23.9696 6.00011 24.5 6.00011ZM14.5 14.0001H34.5V10.0001H38.5V38.0001H10.5V10.0001H14.5V14.0001ZM34.5 22.0001H14.5V18.0001H34.5V22.0001ZM30.5 30.0001H14.5V26.0001H30.5V30.0001Z" fill="#F8F9FA"/>
</svg>
