<svg width="48" height="49" viewBox="0 0 48 49" fill="none" xmlns="http://www.w3.org/2000/svg">
<path d="M8 12.3496H12V36.3496H8V12.3496ZM14 12.3496H16V36.3496H14V12.3496ZM18 12.3496H24V36.3496H18V12.3496ZM26 12.3496H28V36.3496H26V12.3496ZM32 12.3496H36V36.3496H32V12.3496ZM38 12.3496H40V36.3496H38V12.3496ZM4 8.34961V16.3496H0V8.34961C0 7.28874 0.421427 6.27133 1.17157 5.52118C1.92172 4.77104 2.93913 4.34961 4 4.34961H12V8.34961H4ZM44 4.34961C45.0609 4.34961 46.0783 4.77104 46.8284 5.52118C47.5786 6.27133 48 7.28874 48 8.34961V16.3496H44V8.34961H36V4.34961H44ZM4 32.3496V40.3496H12V44.3496H4C2.93913 44.3496 1.92172 43.9282 1.17157 43.178C0.421427 42.4279 0 41.4105 0 40.3496V32.3496H4ZM44 40.3496V32.3496H48V40.3496C48 41.4105 47.5786 42.4279 46.8284 43.178C46.0783 43.9282 45.0609 44.3496 44 44.3496H36V40.3496H44Z" fill="#F8F9FA"/>
</svg>
