<svg xmlns="http://www.w3.org/2000/svg" viewBox="0 0 158.03 186.22"><defs><style>.cls-1{fill:#f1ad1b;}.cls-2{fill:#fff;}</style></defs><title>Recurso 5</title><g id="Capa_2" data-name="Capa 2"><g id="Capa_2-2" data-name="Capa 2"><path class="cls-1" d="M132.68,76.59c0,5.47-5.86,9.65-7.46,14.58-1.66,5.11,4.36,14.69,1.27,18.94s-16.22-1.38-20.51,1.75-3.85,14.33-9,16c-4.93,1.6-11.19-6.41-16.66-6.41s-12,8.81-16.91,7.2c-5.11-1.65-6.41-11-10.67-14.08s-13.3-1.69-16.42-6,3.18-13.06,1.52-18.17c-1.6-4.93-14.6-8.34-14.6-13.81s12.29-9.1,13.89-14c1.66-5.11-4-13.78-.94-18s11.58-3.71,15.88-6.84,6.11-11.86,11.22-13.52c4.93-1.6,11.57,9.21,17,9.21S92.5,22.46,97.43,24.06c5.11,1.66,5.63,12.33,9.89,15.43S123.87,38.41,127,42.7s-5.87,15-4.21,20.11C124.39,67.74,132.68,71.13,132.68,76.59Z"/><path class="cls-2" d="M114.51,77.83c0,9.64-2,19.3-8.33,25.62s-16,8.74-25.62,8.74-18.44-3.28-24.76-9.6A35.09,35.09,0,0,1,45.44,77.83,34.73,34.73,0,0,1,56.05,53.32c6.32-6.32,14.87-11.1,24.51-11.1S98,47.75,104.32,54.07,114.51,68.19,114.51,77.83Z"/><path class="cls-1" d="M138.2,29.53c2.08-1,4.23-2.18,6.45-3.18,2.71-1.23,4.64-.59,5.94,1.81s.86,4.28-1.58,5.79q-5.85,3.61-11.94,6.81c-2.48,1.29-4.38.87-5.66-.7-1.88-2.31-1.58-4.58.87-6.55.28-.23.59-.42.89-.62Z"/><path class="cls-1" d="M134.58,120.14c1.34.6,2.71,1.29,4.14,1.84,1.76.67,3.26-.22,4.59-2.61s1.3-4-.21-5a74.06,74.06,0,0,0-7.52-4.25c-1.58-.77-3-.09-4.2,1.55-1.73,2.39-1.88,4.41-.43,5.79a5.24,5.24,0,0,0,.54.42Z"/><path class="cls-1" d="M22.12,32.67c-2.09-1-4.24-2.18-6.45-3.18C13,28.27,11,28.9,9.72,31.3s-.85,4.28,1.58,5.79q5.85,3.61,12,6.81c2.47,1.29,4.37.88,5.65-.7,1.88-2.31,1.59-4.58-.86-6.55-.28-.23-.59-.42-.89-.62Z"/><path class="cls-1" d="M8.29,71.69c-1.7.16-3.47.26-5.22.51C.91,72.51-.06,74,0,76.77S1,80.89,3.13,81a98.13,98.13,0,0,0,10-.14c2-.13,3.07-1.45,3.3-3.45.33-3-.7-4.76-3-5.22a5.31,5.31,0,0,0-.79-.09Z"/><path class="cls-1" d="M146.82,70.16c-2.32.16-4.74.26-7.14.51-3,.32-4.29,1.84-4.2,4.57s1.42,4.13,4.27,4.2q6.84.16,13.69-.16c2.78-.14,4.2-1.45,4.51-3.46.45-2.94-.95-4.76-4-5.22-.36,0-.72-.06-1.08-.08Z"/><path class="cls-1" d="M100.77,8.1c-.52,2-1.14,4-1.59,6.11-.56,2.55.49,4.17,3.09,5s4.3.18,5.2-2.16c1.43-3.76,2.72-7.58,3.84-11.44.68-2.35-.15-4-2-4.88-2.65-1.35-4.77-.79-6.11,1.63-.15.28-.26.58-.39.87C102.18,4.82,101.49,6.41,100.77,8.1Z"/><path class="cls-1" d="M52.91,16.69c.84,1.24,1.65,2.57,2.61,3.82,1.16,1.53,2.91,1.58,5.29.24S64,18,63.22,16.35A76.29,76.29,0,0,0,59,8.63c-1-1.52-2.54-1.71-4.4-.94-2.74,1.12-3.92,2.77-3.39,4.75a4.6,4.6,0,0,0,.25.65C51.91,14.27,52.39,15.45,52.91,16.69Z"/><path class="cls-1" d="M21,111.11c-1.85,1.4-3.84,2.82-5.72,4.35-2.3,1.89-2.59,3.9-1,6.13s3.45,2.67,5.88,1.17q5.85-3.63,11.43-7.66c2.26-1.64,2.73-3.52,1.9-5.37-1.23-2.71-3.4-3.46-6.25-2.14-.33.15-.64.34-.95.52Z"/><path class="cls-2" d="M6.27,181.64a1.34,1.34,0,0,1-.41-1L6,146.91a1.42,1.42,0,0,1,1.4-1.39l9.21,0a1.32,1.32,0,0,1,1,.41,1.34,1.34,0,0,1,.41,1l-.16,33.76a1.4,1.4,0,0,1-1.39,1.38l-9.21,0A1.33,1.33,0,0,1,6.27,181.64Z"/><path class="cls-2" d="M27.22,181.4a9,9,0,0,1-3.61-3.9A14.09,14.09,0,0,1,22.27,171l.07-14.2a1.4,1.4,0,0,1,1.4-1.38l9.82,0a1.32,1.32,0,0,1,1,.42,1.34,1.34,0,0,1,.41,1l-.07,13.84a3,3,0,0,0,.66,2.11,2.43,2.43,0,0,0,1.9.73,2.45,2.45,0,0,0,1.91-.71,3,3,0,0,0,.68-2.11l.06-13.84a1.42,1.42,0,0,1,1.4-1.38l9.77,0a1.4,1.4,0,0,1,1,.42,1.36,1.36,0,0,1,.41,1l-.11,24a1.37,1.37,0,0,1-.42,1,1.32,1.32,0,0,1-1,.41l-9,0a1.31,1.31,0,0,1-1-.42,1.34,1.34,0,0,1-.41-1v-1.69a7.48,7.48,0,0,1-3.46,2.68,13.5,13.5,0,0,1-5.1.88A10,10,0,0,1,27.22,181.4Z"/><path class="cls-2" d="M57.57,181.88a1.31,1.31,0,0,1-.4-1l.11-24a1.32,1.32,0,0,1,.41-1,1.34,1.34,0,0,1,1-.41l8.49,0a1.34,1.34,0,0,1,1,.41,1.38,1.38,0,0,1,.41,1v1.7a9.21,9.21,0,0,1,3.15-2.51,9.82,9.82,0,0,1,4.64-1c3.67,0,6.16,1.43,7.49,4.25a9.79,9.79,0,0,1,3.41-3,9,9,0,0,1,4.48-1.19,8.85,8.85,0,0,1,6.8,2.88c1.76,1.92,2.63,4.79,2.62,8.64l-.07,14.4a1.32,1.32,0,0,1-.42,1,1.34,1.34,0,0,1-1,.41l-9-.05a1.34,1.34,0,0,1-1-.41,1.36,1.36,0,0,1-.41-1l.07-14.15a2.85,2.85,0,0,0-.53-1.88,1.88,1.88,0,0,0-1.52-.65,1.78,1.78,0,0,0-1.49.63,3,3,0,0,0-.53,1.88L85.16,181a1.4,1.4,0,0,1-1.4,1.38l-9.05,0a1.32,1.32,0,0,1-1-.42,1.34,1.34,0,0,1-.41-1l.07-14.15a2.87,2.87,0,0,0-.53-1.88,1.91,1.91,0,0,0-1.52-.65,1.84,1.84,0,0,0-1.52.67,2.9,2.9,0,0,0-.55,1.84L69.21,181a1.31,1.31,0,0,1-.42,1,1.34,1.34,0,0,1-1,.41l-9.26,0A1.37,1.37,0,0,1,57.57,181.88Z"/><path class="cls-2" d="M105.84,182.1a1.31,1.31,0,0,1-.41-1l.11-24a1.31,1.31,0,0,1,.42-1,1.34,1.34,0,0,1,1-.41l9.21,0a1.37,1.37,0,0,1,1,.42,1.32,1.32,0,0,1,.41,1l-.11,24a1.42,1.42,0,0,1-1.4,1.38l-9.21,0A1.31,1.31,0,0,1,105.84,182.1Zm.39-29.58a1.31,1.31,0,0,1-.4-1l0-6.23a1.42,1.42,0,0,1,1.4-1.38l8.7,0a1.34,1.34,0,0,1,1,.41,1.38,1.38,0,0,1,.41,1l0,6.23a1.33,1.33,0,0,1-.42,1,1.3,1.3,0,0,1-1,.4l-8.69,0A1.36,1.36,0,0,1,106.23,152.52Z"/><path class="cls-2" d="M122.46,182.18a1.32,1.32,0,0,1-.41-1l.11-24a1.42,1.42,0,0,1,1.4-1.38l9,0a1.42,1.42,0,0,1,1.39,1.4V159a9.75,9.75,0,0,1,3.64-2.58,12.11,12.11,0,0,1,4.92-1,10.07,10.07,0,0,1,5,1.29,9,9,0,0,1,3.61,3.9,14,14,0,0,1,1.33,6.54l-.06,14.2a1.4,1.4,0,0,1-1.4,1.38l-9.82,0a1.32,1.32,0,0,1-1-.42,1.34,1.34,0,0,1-.41-1l.07-13.84a3,3,0,0,0-.66-2.11,2.88,2.88,0,0,0-3.81,0,3,3,0,0,0-.68,2.11l-.06,13.84a1.42,1.42,0,0,1-1.4,1.38l-9.78,0A1.35,1.35,0,0,1,122.46,182.18Z"/><path class="cls-1" d="M6.27,185.14a1.34,1.34,0,0,1-.41-1L6,150.41A1.42,1.42,0,0,1,7.42,149l9.21,0a1.32,1.32,0,0,1,1,.41,1.34,1.34,0,0,1,.41,1l-.16,33.76a1.4,1.4,0,0,1-1.39,1.38l-9.21,0A1.33,1.33,0,0,1,6.27,185.14Z"/><path class="cls-1" d="M27.22,184.9a9,9,0,0,1-3.61-3.9,14.09,14.09,0,0,1-1.34-6.54l.07-14.2a1.4,1.4,0,0,1,1.4-1.38l9.82,0a1.32,1.32,0,0,1,1,.42,1.34,1.34,0,0,1,.41,1l-.07,13.84a3,3,0,0,0,.66,2.11,2.43,2.43,0,0,0,1.9.73,2.45,2.45,0,0,0,1.91-.71,3,3,0,0,0,.68-2.11l.06-13.84a1.42,1.42,0,0,1,1.4-1.38l9.77,0a1.4,1.4,0,0,1,1,.42,1.36,1.36,0,0,1,.41,1l-.11,24a1.37,1.37,0,0,1-.42,1,1.32,1.32,0,0,1-1,.41l-9,0a1.31,1.31,0,0,1-1-.42,1.34,1.34,0,0,1-.41-1v-1.69a7.48,7.48,0,0,1-3.46,2.68,13.5,13.5,0,0,1-5.1.88A10,10,0,0,1,27.22,184.9Z"/><path class="cls-1" d="M57.57,185.38a1.31,1.31,0,0,1-.4-1l.11-24a1.32,1.32,0,0,1,.41-1,1.34,1.34,0,0,1,1-.41l8.49,0a1.34,1.34,0,0,1,1,.41,1.38,1.38,0,0,1,.41,1v1.7a9.21,9.21,0,0,1,3.15-2.51,9.82,9.82,0,0,1,4.64-1c3.67,0,6.16,1.43,7.49,4.25a9.79,9.79,0,0,1,3.41-3,9,9,0,0,1,4.48-1.19,8.85,8.85,0,0,1,6.8,2.88c1.76,1.92,2.63,4.79,2.62,8.64l-.07,14.4a1.32,1.32,0,0,1-.42,1,1.34,1.34,0,0,1-1,.41l-9-.05a1.34,1.34,0,0,1-1-.41,1.36,1.36,0,0,1-.41-1l.07-14.15a2.85,2.85,0,0,0-.53-1.88,1.88,1.88,0,0,0-1.52-.65,1.78,1.78,0,0,0-1.49.63,3,3,0,0,0-.53,1.88l-.06,14.15a1.4,1.4,0,0,1-1.4,1.38l-9.05,0a1.32,1.32,0,0,1-1-.42,1.34,1.34,0,0,1-.41-1l.07-14.15a2.87,2.87,0,0,0-.53-1.88,1.91,1.91,0,0,0-1.52-.65,1.84,1.84,0,0,0-1.52.67,2.9,2.9,0,0,0-.55,1.84l-.06,14.16a1.31,1.31,0,0,1-.42,1,1.34,1.34,0,0,1-1,.41l-9.26,0A1.37,1.37,0,0,1,57.57,185.38Z"/><path class="cls-1" d="M105.84,185.6a1.31,1.31,0,0,1-.41-1l.11-24a1.31,1.31,0,0,1,.42-1,1.34,1.34,0,0,1,1-.41l9.21,0a1.37,1.37,0,0,1,1,.42,1.32,1.32,0,0,1,.41,1l-.11,24a1.42,1.42,0,0,1-1.4,1.38l-9.21,0A1.31,1.31,0,0,1,105.84,185.6Zm.39-29.58a1.31,1.31,0,0,1-.4-1l0-6.23a1.42,1.42,0,0,1,1.4-1.38l8.7,0a1.34,1.34,0,0,1,1,.41,1.38,1.38,0,0,1,.41,1l0,6.23a1.33,1.33,0,0,1-.42,1,1.3,1.3,0,0,1-1,.4l-8.69,0A1.36,1.36,0,0,1,106.23,156Z"/><path class="cls-1" d="M122.46,185.68a1.32,1.32,0,0,1-.41-1l.11-24a1.42,1.42,0,0,1,1.4-1.38l9,0a1.42,1.42,0,0,1,1.39,1.4v1.69a9.75,9.75,0,0,1,3.64-2.58,12.11,12.11,0,0,1,4.92-1,10.07,10.07,0,0,1,5,1.29,9,9,0,0,1,3.61,3.9,14,14,0,0,1,1.33,6.54l-.06,14.2a1.4,1.4,0,0,1-1.4,1.38l-9.82,0a1.32,1.32,0,0,1-1-.42,1.34,1.34,0,0,1-.41-1l.07-13.84a3,3,0,0,0-.66-2.11,2.88,2.88,0,0,0-3.81,0,3,3,0,0,0-.68,2.11l-.06,13.84a1.42,1.42,0,0,1-1.4,1.38l-9.78,0A1.35,1.35,0,0,1,122.46,185.68Z"/><path class="cls-1" d="M75.22,68.5c-2.6,0-4.18-1.32-4.15-3.54s1.6-3.46,4-3.51c2.54-.05,4.12,1.35,4.1,3.62S77.75,68.46,75.22,68.5Z"/><path class="cls-1" d="M101.35,68.5c-2.6,0-4.18-1.32-4.14-3.54s1.59-3.46,4-3.51,4.12,1.35,4.1,3.62S103.88,68.46,101.35,68.5Z"/><path class="cls-1" d="M88.86,81.13c2.33,0,4.76.12,7.19.06,3-.08,4.43-1.5,4.56-4.22s-1.09-4.23-3.94-4.52q-6.84-.72-13.72-.94c-2.79-.08-4.32,1.12-4.78,3.09-.69,2.9.56,4.82,3.63,5.52.35.08.71.12,1.06.17Z"/></g></g></svg>