<svg width="128" height="128" viewBox="0 0 128 128" fill="none" xmlns="http://www.w3.org/2000/svg">
<path d="M101.333 34.6667H90.6667C90.6667 19.7333 78.9333 8 64 8C49.0667 8 37.3333 19.7333 37.3333 34.6667H26.6667C20.8 34.6667 16 39.4667 16 45.3333V109.333C16 115.2 20.8 120 26.6667 120H101.333C107.2 120 112 115.2 112 109.333V45.3333C112 39.4667 107.2 34.6667 101.333 34.6667ZM64 18.6667C73.0667 18.6667 80 25.6 80 34.6667H48C48 25.6 54.9333 18.6667 64 18.6667ZM101.333 109.333H26.6667V45.3333H101.333V109.333ZM64 66.6667C54.9333 66.6667 48 59.7333 48 50.6667H37.3333C37.3333 65.6 49.0667 77.3333 64 77.3333C78.9333 77.3333 90.6667 65.6 90.6667 50.6667H80C80 59.7333 73.0667 66.6667 64 66.6667Z" fill="#4F4293"/>
</svg>
